<svg xmlns="http://www.w3.org/2000/svg" width="617.138" height="118" viewBox="0 0 617.138 118">
  <g id="Group_7" data-name="Group 7" transform="translate(-141.862 -876)">
    <text id="Mary_s_Food" data-name="Mary’s Food" transform="translate(244 972)" fill="#393939" font-size="89" font-family="PlayfairDisplay-Black, Playfair Display" font-weight="800"><tspan x="0" y="0">Mary’s Food</tspan></text>
    <g id="Group_1" data-name="Group 1" transform="translate(141.862 880.25)">
      <path id="Path_11" data-name="Path 11" d="M12.509,2.894c-5.5,22.056-25.165,71.861,0,80.66S18.005-19.161,12.509,2.894Z" transform="translate(0 1.309) rotate(-3)" fill="#babf95"/>
      <path id="Path_8" data-name="Path 8" d="M12.509,2.894c-5.5,22.056-25.165,71.861,0,80.66S18.005-19.161,12.509,2.894Z" transform="translate(28.858 1.309) rotate(-3)" fill="#c4ad83"/>
      <path id="Path_9" data-name="Path 9" d="M12.509,2.894c-5.5,22.056-25.165,71.861,0,80.66S18.005-19.161,12.509,2.894Z" transform="translate(57.716 1.309) rotate(-3)" fill="#c6b677"/>
      <path id="Path_12" data-name="Path 12" d="M865.428,358.2s7.427-.389,8.231,6.861a77.69,77.69,0,0,1,0,14.719s-7.986,2.271-8.231-6.367S865.428,358.2,865.428,358.2Z" transform="translate(-853.073 -271.24)" fill="#babf95"/>
      <path id="Path_10" data-name="Path 10" d="M865.428,358.2s7.427-.389,8.231,6.861a77.69,77.69,0,0,1,0,14.719s-7.986,2.271-8.231-6.367S865.428,358.2,865.428,358.2Z" transform="translate(-824.215 -271.24)" fill="#c4ad83"/>
      <path id="Path_7" data-name="Path 7" d="M865.428,358.2s7.427-.389,8.231,6.861a77.69,77.69,0,0,1,0,14.719s-7.986,2.271-8.231-6.367S865.428,358.2,865.428,358.2Z" transform="translate(-795.357 -271.24)" fill="#c6b677"/>
    </g>
  </g>
</svg>
