<svg xmlns="http://www.w3.org/2000/svg" width="81.839" height="102.24" viewBox="0 0 81.839 102.24"><g transform="translate(-816.862 -416.404)"><path d="M11.753,2.72c-5.164,20.724-23.645,67.521,0,75.788S16.918-18,11.753,2.72Z" transform="translate(816.862 417.635) rotate(-3)" fill="#babf95"/><path d="M11.753,2.72c-5.164,20.724-23.645,67.521,0,75.788S16.918-18,11.753,2.72Z" transform="translate(843.977 417.635) rotate(-3)" fill="#c4ad83"/><path d="M11.753,2.72c-5.164,20.724-23.645,67.521,0,75.788S16.918-18,11.753,2.72Z" transform="translate(871.093 417.635) rotate(-3)" fill="#c6b677"/><path d="M865.422,358.2s6.978-.366,7.734,6.446a73.02,73.02,0,0,1,0,13.83s-7.5,2.134-7.734-5.983S865.422,358.2,865.422,358.2Z" transform="translate(-36.951 139.913)" fill="#babf95"/><path d="M865.422,358.2s6.978-.366,7.734,6.446a73.02,73.02,0,0,1,0,13.83s-7.5,2.134-7.734-5.983S865.422,358.2,865.422,358.2Z" transform="translate(-9.836 139.913)" fill="#c4ad83"/><path d="M865.422,358.2s6.978-.366,7.734,6.446a73.02,73.02,0,0,1,0,13.83s-7.5,2.134-7.734-5.983S865.422,358.2,865.422,358.2Z" transform="translate(17.28 139.913)" fill="#c6b677"/></g></svg>